<svg width="80" height="80" viewBox="0 0 80 80" fill="none" xmlns="http://www.w3.org/2000/svg">
<path d="M17.5 76.25H13.75V71.25H20L17.5 76.25Z" fill="#4F4F4F"/>
<path d="M62.5 76.25H66.25V71.25H60L62.5 76.25Z" fill="#4F4F4F"/>
<path d="M12.5 3.75H40V58.75H12.5V3.75Z" fill="#1C1C1C"/>
<path d="M40 3.75H67.5V58.75H40V3.75Z" fill="#1C1C1C"/>
<path d="M12.5 58.75H67.5V71.25H12.5V58.75Z" fill="#9E9E9E"/>
<path d="M67.5 2.5H12.5C12.1685 2.5 11.8505 2.6317 11.6161 2.86612C11.3817 3.10054 11.25 3.41848 11.25 3.75V71.25C11.25 71.5815 11.3817 71.8995 11.6161 72.1339C11.8505 72.3683 12.1685 72.5 12.5 72.5V76.25C12.5 76.5815 12.6317 76.8995 12.8661 77.1339C13.1005 77.3683 13.4185 77.5 13.75 77.5H17.5C17.7312 77.501 17.958 77.4371 18.1547 77.3156C18.3514 77.1941 18.51 77.0197 18.6125 76.8125L20.775 72.5H59.225L61.3875 76.8125C61.49 77.0197 61.6486 77.1941 61.8453 77.3156C62.042 77.4371 62.2688 77.501 62.5 77.5H66.25C66.5815 77.5 66.8995 77.3683 67.1339 77.1339C67.3683 76.8995 67.5 76.5815 67.5 76.25V72.5C67.8315 72.5 68.1495 72.3683 68.3839 72.1339C68.6183 71.8995 68.75 71.5815 68.75 71.25V3.75C68.75 3.41848 68.6183 3.10054 68.3839 2.86612C68.1495 2.6317 67.8315 2.5 67.5 2.5ZM13.75 5H38.75V57.5H13.75V5ZM16.725 75H15V72.5H17.975L16.725 75ZM65 75H63.275L62.025 72.5H65V75ZM66.25 70H13.75V60H66.25V70ZM66.25 57.5H41.25V5H66.25V57.5Z" fill="black"/>
<path d="M36.25 62.5H43.75V65H36.25V62.5Z" fill="black"/>
<path d="M33.75 23.75H36.25V31.25H33.75V23.75Z" fill="black"/>
<path d="M43.75 23.75H46.25V31.25H43.75V23.75Z" fill="black"/>
</svg>
