<svg width="80" height="80" viewBox="0 0 80 80" fill="none" xmlns="http://www.w3.org/2000/svg">
<path d="M3.75 10H76.25V20H3.75V10Z" fill="#1C1C1C"/>
<path d="M41.25 20H73.75V65H41.25V20Z" fill="#1C1C1C"/>
<path d="M5 20H10V66.25H5V20Z" fill="#1C1C1C"/>
<path d="M46.25 33.75H68.75V60H46.25V33.75Z" fill="#9E9E9E"/>
<path d="M46.25 25H68.75V35H46.25V25Z" fill="#9E9E9E"/>
<path d="M76.25 8.75H3.75C3.41848 8.75 3.10054 8.8817 2.86612 9.11612C2.6317 9.35054 2.5 9.66848 2.5 10V20C2.5 20.3315 2.6317 20.6495 2.86612 20.8839C3.10054 21.1183 3.41848 21.25 3.75 21.25V66.25C3.75 66.5815 3.8817 66.8995 4.11612 67.1339C4.35054 67.3683 4.66848 67.5 5 67.5H10C10.3315 67.5 10.6495 67.3683 10.8839 67.1339C11.1183 66.8995 11.25 66.5815 11.25 66.25V21.25H40V65C40 65.3315 40.1317 65.6495 40.3661 65.8839C40.6005 66.1183 40.9185 66.25 41.25 66.25H73.75C74.0815 66.25 74.3995 66.1183 74.6339 65.8839C74.8683 65.6495 75 65.3315 75 65V21.25H76.25C76.5815 21.25 76.8995 21.1183 77.1339 20.8839C77.3683 20.6495 77.5 20.3315 77.5 20V10C77.5 9.66848 77.3683 9.35054 77.1339 9.11612C76.8995 8.8817 76.5815 8.75 76.25 8.75ZM8.75 65H6.25V21.25H8.75V65ZM72.5 63.75H42.5V21.25H72.5V63.75ZM75 18.75H5V11.25H75V18.75Z" fill="black"/>
<path d="M46.25 61.25H68.75C69.0815 61.25 69.3995 61.1183 69.6339 60.8839C69.8683 60.6495 70 60.3315 70 60V25C70 24.6685 69.8683 24.3505 69.6339 24.1161C69.3995 23.8817 69.0815 23.75 68.75 23.75H46.25C45.9185 23.75 45.6005 23.8817 45.3661 24.1161C45.1317 24.3505 45 24.6685 45 25V60C45 60.3315 45.1317 60.6495 45.3661 60.8839C45.6005 61.1183 45.9185 61.25 46.25 61.25ZM67.5 58.75H47.5V35H67.5V58.75ZM47.5 26.25H67.5V32.5H47.5V26.25Z" fill="black"/>
<path d="M50 45H52.5V50H50V45Z" fill="black"/>
<path d="M53.75 27.5H61.25V30H53.75V27.5Z" fill="black"/>
</svg>
