<svg width="80" height="80" viewBox="0 0 80 80" fill="none" xmlns="http://www.w3.org/2000/svg">
<path d="M23.75 3.75H56.25C56.913 3.75 57.5489 4.01339 58.0178 4.48223C58.4866 4.95107 58.75 5.58696 58.75 6.25V38.75H21.25V6.25C21.25 5.58696 21.5134 4.95107 21.9822 4.48223C22.4511 4.01339 23.087 3.75 23.75 3.75Z" fill="#1C1C1C"/>
<path d="M25 7.5H55V38.75H25V7.5Z" fill="#F1F1F1"/>
<path d="M16.25 45H63.75V51.25H16.25V45Z" fill="#9E9E9E"/>
<path d="M15 38.75H65V45H15V38.75Z" fill="#1C1C1C"/>
<path d="M17.5 51.25H22.5V76.25H17.5V51.25Z" fill="#1C1C1C"/>
<path d="M57.5 51.25H62.5V76.25H57.5V51.25Z" fill="#1C1C1C"/>
<path d="M27.5 56.25H52.5V62.5H27.5V56.25Z" fill="#1C1C1C"/>
<path d="M32.5 76.25H28.75V62.5H33.75L32.5 76.25Z" fill="#1C1C1C"/>
<path d="M47.5 76.25H51.25V62.5H46.25L47.5 76.25Z" fill="#1C1C1C"/>
<path d="M65 37.5H60V6.25C59.997 5.25635 59.601 4.30425 58.8984 3.60163C58.1958 2.89901 57.2436 2.50297 56.25 2.5H23.75C22.7564 2.50297 21.8042 2.89901 21.1016 3.60163C20.399 4.30425 20.003 5.25635 20 6.25V37.5H15C14.6685 37.5 14.3505 37.6317 14.1161 37.8661C13.8817 38.1005 13.75 38.4185 13.75 38.75V45C13.75 45.3315 13.8817 45.6495 14.1161 45.8839C14.3505 46.1183 14.6685 46.25 15 46.25V51.25C15 51.5815 15.1317 51.8995 15.3661 52.1339C15.6005 52.3683 15.9185 52.5 16.25 52.5V76.25C16.25 76.5815 16.3817 76.8995 16.6161 77.1339C16.8505 77.3683 17.1685 77.5 17.5 77.5H22.5C22.8315 77.5 23.1495 77.3683 23.3839 77.1339C23.6183 76.8995 23.75 76.5815 23.75 76.25V52.5H56.25V76.25C56.25 76.5815 56.3817 76.8995 56.6161 77.1339C56.8505 77.3683 57.1685 77.5 57.5 77.5H62.5C62.8315 77.5 63.1495 77.3683 63.3839 77.1339C63.6183 76.8995 63.75 76.5815 63.75 76.25V52.5C64.0815 52.5 64.3995 52.3683 64.6339 52.1339C64.8683 51.8995 65 51.5815 65 51.25V46.25C65.3315 46.25 65.6495 46.1183 65.8839 45.8839C66.1183 45.6495 66.25 45.3315 66.25 45V38.75C66.25 38.4185 66.1183 38.1005 65.8839 37.8661C65.6495 37.6317 65.3315 37.5 65 37.5ZM22.5 6.25C22.5 5.91848 22.6317 5.60054 22.8661 5.36612C23.1005 5.1317 23.4185 5 23.75 5H56.25C56.5815 5 56.8995 5.1317 57.1339 5.36612C57.3683 5.60054 57.5 5.91848 57.5 6.25V37.5H56.25V7.5C56.25 7.16848 56.1183 6.85054 55.8839 6.61612C55.6495 6.3817 55.3315 6.25 55 6.25H25C24.6685 6.25 24.3505 6.3817 24.1161 6.61612C23.8817 6.85054 23.75 7.16848 23.75 7.5V37.5H22.5V6.25ZM53.75 8.75V37.5H26.25V8.75H53.75ZM21.25 75H18.75V52.5H21.25V75ZM38.75 50H17.5V46.25H38.75V50ZM61.25 75H58.75V52.5H61.25V75ZM62.5 50H41.25V46.25H62.5V50ZM63.75 43.75H16.25V40H63.75V43.75Z" fill="black"/>
<path d="M52.5 55H27.5C27.1685 55 26.8505 55.1317 26.6161 55.3661C26.3817 55.6005 26.25 55.9185 26.25 56.25V62.5C26.25 62.8315 26.3817 63.1495 26.6161 63.3839C26.8505 63.6183 27.1685 63.75 27.5 63.75V76.25C27.5 76.5815 27.6317 76.8995 27.8661 77.1339C28.1005 77.3683 28.4185 77.5 28.75 77.5H32.5C32.8129 77.5013 33.1149 77.3851 33.3464 77.1745C33.5778 76.9639 33.7218 76.6742 33.75 76.3625L34.8875 63.75H45.1125L46.25 76.3625C46.2782 76.6742 46.4222 76.9639 46.6536 77.1745C46.8851 77.3851 47.1871 77.5013 47.5 77.5H51.25C51.5815 77.5 51.8995 77.3683 52.1339 77.1339C52.3683 76.8995 52.5 76.5815 52.5 76.25V63.75C52.8315 63.75 53.1495 63.6183 53.3839 63.3839C53.6183 63.1495 53.75 62.8315 53.75 62.5V56.25C53.75 55.9185 53.6183 55.6005 53.3839 55.3661C53.1495 55.1317 52.8315 55 52.5 55ZM31.3625 75H30V63.75H32.3875L31.3625 75ZM50 75H48.6375L47.6125 63.75H50V75ZM51.25 61.25H28.75V57.5H51.25V61.25Z" fill="black"/>
</svg>
