<svg width="80" height="80" viewBox="0 0 80 80" fill="none" xmlns="http://www.w3.org/2000/svg">
<path d="M8.75 56.25H71.25V71.25H8.75V56.25Z" fill="#9E9E9E"/>
<path d="M16.25 76.25H11.25V71.25H17.5L16.25 76.25Z" fill="#1C1C1C"/>
<path d="M63.75 76.25H68.75V71.25H62.5L63.75 76.25Z" fill="#1C1C1C"/>
<path d="M12.5 3.75H67.5V56.25H12.5V3.75Z" fill="#1C1C1C"/>
<path d="M8.75 38.75H71.25V43.75H8.75V38.75Z" fill="#9E9E9E"/>
<path d="M8.75 18.75H71.25V23.75H8.75V18.75Z" fill="#9E9E9E"/>
<path d="M33.75 60H36.25V65H33.75V60Z" fill="black"/>
<path d="M43.75 60H46.25V65H43.75V60Z" fill="black"/>
<path d="M71.25 25C71.5815 25 71.8995 24.8683 72.1339 24.6339C72.3683 24.3995 72.5 24.0815 72.5 23.75V18.75C72.5 18.4185 72.3683 18.1005 72.1339 17.8661C71.8995 17.6317 71.5815 17.5 71.25 17.5H68.75V3.75C68.75 3.41848 68.6183 3.10054 68.3839 2.86612C68.1495 2.6317 67.8315 2.5 67.5 2.5H12.5C12.1685 2.5 11.8505 2.6317 11.6161 2.86612C11.3817 3.10054 11.25 3.41848 11.25 3.75V17.5H8.75C8.41848 17.5 8.10054 17.6317 7.86612 17.8661C7.6317 18.1005 7.5 18.4185 7.5 18.75V23.75C7.5 24.0815 7.6317 24.3995 7.86612 24.6339C8.10054 24.8683 8.41848 25 8.75 25H11.25V37.5H8.75C8.41848 37.5 8.10054 37.6317 7.86612 37.8661C7.6317 38.1005 7.5 38.4185 7.5 38.75V43.75C7.5 44.0815 7.6317 44.3995 7.86612 44.6339C8.10054 44.8683 8.41848 45 8.75 45H11.25V55H8.75C8.41848 55 8.10054 55.1317 7.86612 55.3661C7.6317 55.6005 7.5 55.9185 7.5 56.25V71.25C7.5 71.5815 7.6317 71.8995 7.86612 72.1339C8.10054 72.3683 8.41848 72.5 8.75 72.5H10V76.25C10 76.5815 10.1317 76.8995 10.3661 77.1339C10.6005 77.3683 10.9185 77.5 11.25 77.5H16.25C16.5292 77.4998 16.8002 77.4061 17.02 77.234C17.2397 77.0618 17.3955 76.821 17.4625 76.55L18.475 72.5H61.525L62.5375 76.55C62.6045 76.821 62.7603 77.0618 62.98 77.234C63.1998 77.4061 63.4708 77.4998 63.75 77.5H68.75C69.0815 77.5 69.3995 77.3683 69.6339 77.1339C69.8683 76.8995 70 76.5815 70 76.25V72.5H71.25C71.5815 72.5 71.8995 72.3683 72.1339 72.1339C72.3683 71.8995 72.5 71.5815 72.5 71.25V56.25C72.5 55.9185 72.3683 55.6005 72.1339 55.3661C71.8995 55.1317 71.5815 55 71.25 55H68.75V45H71.25C71.5815 45 71.8995 44.8683 72.1339 44.6339C72.3683 44.3995 72.5 44.0815 72.5 43.75V38.75C72.5 38.4185 72.3683 38.1005 72.1339 37.8661C71.8995 37.6317 71.5815 37.5 71.25 37.5H68.75V25H71.25ZM13.75 5H66.25V17.5H13.75V5ZM15.275 75H12.5V72.5H15.9L15.275 75ZM38.75 70H10V57.5H38.75V70ZM13.75 55V45H66.25V55H13.75ZM67.5 75H64.725L64.1 72.5H67.5V75ZM70 57.5V70H41.25V57.5H70ZM70 40V42.5H10V40H70ZM13.75 37.5V25H66.25V37.5H13.75ZM10 22.5V20H70V22.5H10Z" fill="black"/>
</svg>
