<svg width="80" height="80" viewBox="0 0 80 80" fill="none" xmlns="http://www.w3.org/2000/svg">
<path d="M13.7499 12.5C13.7541 11.6213 13.5267 10.757 13.0905 9.99423C12.6544 9.23144 12.0249 8.59705 11.2655 8.15499C10.5061 7.71292 9.64361 7.47878 8.76493 7.47616C7.88624 7.47353 7.02238 7.70252 6.26036 8.14004C5.49834 8.57757 4.86508 9.20818 4.42437 9.96836C3.98366 10.7285 3.75106 11.5914 3.75 12.4701C3.74895 13.3488 3.97947 14.2123 4.41835 14.9735C4.85724 15.7347 5.48898 16.3669 6.24994 16.8062V68.75H11.2499V16.8062C12.0081 16.3712 12.6383 15.7441 13.0771 14.9882C13.516 14.2322 13.748 13.3741 13.7499 12.5Z" fill="#1C1C1C"/>
<path d="M76.2499 12.5C76.2541 11.6213 76.0267 10.757 75.5905 9.99423C75.1543 9.23144 74.5249 8.59705 73.7655 8.15499C73.0061 7.71292 72.1436 7.47878 71.2649 7.47616C70.3862 7.47353 69.5224 7.70252 68.7604 8.14004C67.9983 8.57757 67.3651 9.20818 66.9244 9.96836C66.4837 10.7285 66.2511 11.5914 66.25 12.4701C66.2489 13.3488 66.4795 14.2123 66.9184 14.9735C67.3572 15.7347 67.989 16.3669 68.7499 16.8062V68.75H73.7499V16.8062C74.508 16.3712 75.1382 15.7441 75.5771 14.9882C76.016 14.2322 76.248 13.3741 76.2499 12.5Z" fill="#1C1C1C"/>
<path d="M8.75 46.25H71.25C72.5761 46.25 73.8479 46.7768 74.7855 47.7145C75.7232 48.6521 76.25 49.9239 76.25 51.25V63.75H3.75V51.25C3.75 49.9239 4.27678 48.6521 5.21447 47.7145C6.15215 46.7768 7.42392 46.25 8.75 46.25Z" fill="#1C1C1C"/>
<path d="M3.75 63.75H76.25V68.75H3.75V63.75Z" fill="#1C1C1C"/>
<path d="M23.75 20H56.25C59.5652 20 62.7446 21.317 65.0888 23.6612C67.433 26.0054 68.75 29.1848 68.75 32.5V46.25H11.25V32.5C11.25 29.1848 12.567 26.0054 14.9112 23.6612C17.2554 21.317 20.4348 20 23.75 20Z" fill="#9E9E9E"/>
<path d="M35 35H18.75C17.3693 35 16.25 36.1193 16.25 37.5V43.75C16.25 45.1307 17.3693 46.25 18.75 46.25H35C36.3807 46.25 37.5 45.1307 37.5 43.75V37.5C37.5 36.1193 36.3807 35 35 35Z" fill="#F1F1F1"/>
<path d="M61.25 35H45C43.6193 35 42.5 36.1193 42.5 37.5V43.75C42.5 45.1307 43.6193 46.25 45 46.25H61.25C62.6307 46.25 63.75 45.1307 63.75 43.75V37.5C63.75 36.1193 62.6307 35 61.25 35Z" fill="#F1F1F1"/>
<path d="M11.25 76.25H6.25V68.75H12.5L11.25 76.25Z" fill="black"/>
<path d="M68.75 76.25H73.75V68.75H67.5L68.75 76.25Z" fill="black"/>
<path d="M75 46.2875V17.475C75.7778 16.9001 76.4095 16.1501 76.8438 15.2859C77.2781 14.4216 77.5029 13.4673 77.5 12.5C77.5 10.8424 76.8415 9.25269 75.6694 8.08059C74.4973 6.90849 72.9076 6.25001 71.25 6.25001C69.5924 6.25001 68.0027 6.90849 66.8306 8.08059C65.6585 9.25269 65 10.8424 65 12.5C64.9971 13.4673 65.2219 14.4216 65.6562 15.2859C66.0905 16.1501 66.7222 16.9001 67.5 17.475V24.625C66.2365 22.8122 64.5539 21.3313 62.5952 20.3085C60.6365 19.2856 58.4597 18.751 56.25 18.75H23.75C21.5403 18.751 19.3635 19.2856 17.4048 20.3085C15.4461 21.3313 13.7635 22.8122 12.5 24.625V17.475C13.5494 16.6879 14.3246 15.5907 14.7157 14.3386C15.1068 13.0865 15.0941 11.743 14.6793 10.4986C14.2645 9.25413 13.4686 8.17175 12.4044 7.40474C11.3403 6.63774 10.0618 6.22501 8.75 6.22501C7.43823 6.22501 6.15972 6.63774 5.09556 7.40474C4.0314 8.17175 3.23555 9.25413 2.82073 10.4986C2.40591 11.743 2.39316 13.0865 2.78429 14.3386C3.17542 15.5907 3.95059 16.6879 5 17.475V46.2875C4.22539 46.8626 3.59593 47.6109 3.16187 48.4725C2.72781 49.3341 2.50116 50.2852 2.5 51.25V68.75C2.5 69.0815 2.6317 69.3995 2.86612 69.6339C3.10054 69.8683 3.41848 70 3.75 70H5V76.25C5 76.5815 5.1317 76.8995 5.36612 77.1339C5.60054 77.3683 5.91848 77.5 6.25 77.5H11.25C11.5475 77.5009 11.8355 77.3956 12.0623 77.2032C12.2892 77.0107 12.4399 76.7437 12.4875 76.45L13.5625 70H66.4375L67.5125 76.45C67.5601 76.7437 67.7108 77.0107 67.9377 77.2032C68.1645 77.3956 68.4525 77.5009 68.75 77.5H73.75C74.0815 77.5 74.3995 77.3683 74.6339 77.1339C74.8683 76.8995 75 76.5815 75 76.25V70H76.25C76.5815 70 76.8995 69.8683 77.1339 69.6339C77.3683 69.3995 77.5 69.0815 77.5 68.75V51.25C77.4988 50.2852 77.2722 49.3341 76.8381 48.4725C76.4041 47.6109 75.7746 46.8626 75 46.2875ZM71.25 8.75001C72.0759 8.74732 72.8795 9.01821 73.5353 9.52038C74.191 10.0225 74.6621 10.7277 74.8748 11.5258C75.0875 12.3239 75.03 13.1699 74.7112 13.9319C74.3923 14.6938 73.8302 15.3287 73.1125 15.7375C72.9269 15.8492 72.7731 16.0068 72.6659 16.195C72.5586 16.3832 72.5015 16.5959 72.5 16.8125V45.125C72.0881 45.0451 71.6696 45.0032 71.25 45H70V16.8125C69.9985 16.5959 69.9414 16.3832 69.8341 16.195C69.7269 16.0068 69.5731 15.8492 69.3875 15.7375C68.6698 15.3287 68.1077 14.6938 67.7888 13.9319C67.47 13.1699 67.4125 12.3239 67.6252 11.5258C67.8379 10.7277 68.309 10.0225 68.9647 9.52038C69.6205 9.01821 70.4241 8.74732 71.25 8.75001ZM23.75 21.25H56.25C59.2323 21.2546 62.0911 22.4414 64.1998 24.5502C66.3086 26.659 67.4954 29.5177 67.5 32.5V45H64.775C64.9205 44.5992 64.9966 44.1764 65 43.75V37.5C64.997 36.5064 64.601 35.5543 63.8984 34.8516C63.1958 34.149 62.2436 33.753 61.25 33.75H45C44.0064 33.753 43.0542 34.149 42.3516 34.8516C41.649 35.5543 41.253 36.5064 41.25 37.5V43.75C41.2534 44.1764 41.3295 44.5992 41.475 45H38.525C38.6705 44.5992 38.7466 44.1764 38.75 43.75V37.5C38.747 36.5064 38.351 35.5543 37.6484 34.8516C36.9458 34.149 35.9936 33.753 35 33.75H18.75C17.7564 33.753 16.8042 34.149 16.1016 34.8516C15.399 35.5543 15.003 36.5064 15 37.5V43.75C15.0034 44.1764 15.0795 44.5992 15.225 45H12.5V32.5C12.5046 29.5177 13.6914 26.659 15.8002 24.5502C17.9089 22.4414 20.7677 21.2546 23.75 21.25ZM62.5 37.5V43.75C62.5 44.0815 62.3683 44.3995 62.1339 44.6339C61.8995 44.8683 61.5815 45 61.25 45H45C44.6685 45 44.3505 44.8683 44.1161 44.6339C43.8817 44.3995 43.75 44.0815 43.75 43.75V37.5C43.75 37.1685 43.8817 36.8505 44.1161 36.6161C44.3505 36.3817 44.6685 36.25 45 36.25H61.25C61.5815 36.25 61.8995 36.3817 62.1339 36.6161C62.3683 36.8505 62.5 37.1685 62.5 37.5ZM36.25 37.5V43.75C36.25 44.0815 36.1183 44.3995 35.8839 44.6339C35.6495 44.8683 35.3315 45 35 45H18.75C18.4185 45 18.1005 44.8683 17.8661 44.6339C17.6317 44.3995 17.5 44.0815 17.5 43.75V37.5C17.5 37.1685 17.6317 36.8505 17.8661 36.6161C18.1005 36.3817 18.4185 36.25 18.75 36.25H35C35.3315 36.25 35.6495 36.3817 35.8839 36.6161C36.1183 36.8505 36.25 37.1685 36.25 37.5ZM8.75 8.75001C9.74365 8.75297 10.6958 9.14902 11.3984 9.85163C12.101 10.5543 12.497 11.5064 12.5 12.5C12.5015 13.1617 12.3247 13.8116 11.9881 14.3813C11.6516 14.951 11.1677 15.4195 10.5875 15.7375C10.3687 15.8684 10.1951 16.0631 10.0901 16.2955C9.98507 16.5278 9.95364 16.7868 10 17.0375V45H8.75C8.33038 45.0032 7.91195 45.0451 7.5 45.125V17.125C7.56631 16.8613 7.54482 16.5832 7.4388 16.3328C7.33278 16.0824 7.14801 15.8734 6.9125 15.7375C6.33226 15.4195 5.84843 14.951 5.51189 14.3813C5.17534 13.8116 4.99851 13.1617 5 12.5C5.00297 11.5064 5.39901 10.5543 6.10163 9.85163C6.80425 9.14902 7.75635 8.75297 8.75 8.75001ZM10.1875 75H7.5V70H11.025L10.1875 75ZM72.5 75H69.8125L68.975 70H72.5V75ZM75 67.5H5V65H75V67.5ZM75 62.5H5V51.25C5.00297 50.2564 5.39901 49.3043 6.10163 48.6016C6.80425 47.899 7.75635 47.503 8.75 47.5H71.25C72.2437 47.503 73.1958 47.899 73.8984 48.6016C74.601 49.3043 74.997 50.2564 75 51.25V62.5Z" fill="black"/>
</svg>
